# xmcd
#
# Track frame offsets:
#	182
#	25645
#	42415
#	58330
#	77495
#	104082
#	114042
#	144392
#	160420
#	184382
#	212120
#	236482
#
# Disc length: 3413 seconds
# Revision: 5
# Processed by: cddbd v1.5.2PL0 Copyright (c) Steve Scherf et al.
# Submitted via: dBpowerAMP V12.0
#
DISCID=a30d530c
DTITLE=PETERSON, Lucky - Lifetime [Bonus Disc]
DYEAR=1996
DGENRE=Blues
TTITLE0=Bad condition
TTITLE1=Shining star
TTITLE2=We'll be together
TTITLE3=Lifetime
TTITLE4=Next in line
TTITLE5=Blue interlude
TTITLE6=Wash my back
TTITLE7=I ain't buyin
TTITLE8=Ham-burger
TTITLE9=Bird in the hand
TTITLE10=Hide away
TTITLE11=Change is gonna come
EXTD=
EXTT0=
EXTT1=
EXTT2=
EXTT3=
EXTT4=
EXTT5=
EXTT6=
EXTT7=
EXTT8=
EXTT9=
EXTT10=
EXTT11=
PLAYORDER=
